<?xml version="1.0" encoding="UTF-8"?>
<svg width="226.01" height="227.99" version="1.1" viewBox="0 0 59.798 60.323" xmlns="http://www.w3.org/2000/svg" xmlns:xlink="http://www.w3.org/1999/xlink">
 <defs>
  <linearGradient id="linearGradient1580" x1="86.89" x2="86.89" y1="78.18" y2="22.18" gradientTransform="matrix(.78076 0 0 .78076 -290 133.97)" gradientUnits="userSpaceOnUse">
   <stop stop-color="#0058a2" offset="0"/>
   <stop stop-color="#007abf" offset=".97"/>
   <stop stop-color="#007bc0" offset="1"/>
  </linearGradient>
 </defs>
 <g transform="translate(252.07 -133.97)">
  <path d="m-219.04 133.97a3.5603 3.5603 0 0 0 1.6469 3.9495c1.1243 0.52311 2.4588 0.69599 3.669 1.1254a38.031 38.031 0 0 1 9.2364 5.1207l0.0396 0.0473c0.32792-2.6156-1.1873-3.5059-2.7098-4.4116a30.801 30.801 0 0 0-3.2084-1.6698c-3.2324-1.4522-6.7301-1.8661-8.5883-4.1615zm-7.7222 0.91343c-0.32793 0.99156-1.4838 1.2024-2.4597 1.5615-0.53093 0.1797-1.062 0.47657-1.6164 0.70299-3.0528 1.218-6.4871 2.7558-8.6966 4.6296a3.6305 3.6305 0 0 0-1.2962 3.9038 32.456 32.456 0 0 1 8.9086-5.7154c2.4594-0.99158 5.8319-1.3583 5.2854-5.0825zm2.0952 2.3331a1.3351 1.3351 0 0 0-0.39342 0.064 1.3429 1.3429 0 0 0-0.78077 0.49864c-1.1165 1.8426 2.1558 2.9362 2.4993 1.0858l-9e-3 -0.0228a1.3351 1.3351 0 0 0-1.316-1.6256zm4.3247 0.0793c-0.10495-8e-3 -0.21802-6e-3 -0.33854 8e-3a1.2961 1.2961 0 0 0 0.12505 2.5847c1.6176 0.0365 1.7875-2.466 0.21349-2.5924zm3.0956 1.9229a1.5147 1.5147 0 0 0-0.27143 0.0137c-1.2023 0.20303-2.2175 1.2326-2.9202 2.0602a14.155 14.155 0 0 1 7.8076 1.6637c1.5615 0.81979 3.0767 2.5059 4.9895 2.7479 1.1125 0.13804 2.008-0.22504 3.1871-0.0824a27.998 27.998 0 0 0-5.6163-3.8992c-2.0846-1.0931-4.4816-2.3028-7.0268-2.4902a1.5147 1.5147 0 0 0-0.14945-0.0137zm12.793 6.4031a27.998 27.998 0 0 1 6e-3 5e-3h0.0548c-0.0208-3e-3 -0.0404-3e-3 -0.061-5e-3zm-23.427-5.8313c-0.53835 0.0265-1.1006 0.1306-1.653 0.30041a30.582 30.582 0 0 0-6.121 2.8653c-2.2251 1.2726-4.2941 2.6936-5.4653 4.622h0.0153a8.8928 8.8928 0 0 0 3.2877-0.28973c1.7723-0.71048 3.1774-2.06 4.8248-3.0437 2.2642-1.3351 4.9665-2.6637 8.4877-2.2889-0.35134-1.6279-1.7611-2.2448-3.3762-2.1654zm25.025 1.0888a3.6774 3.6774 0 0 0-0.95155 1.9122 3.3651 3.3651 0 0 0 1.2016 3.2008 29.965 29.965 0 0 1 3.7482 4.2866 25.109 25.109 0 0 1 2.7875 6.5815c2.1471-1.8113 0.37416-5.8706-0.6252-7.7054-0.78076-0.9447-1.4917-2.006-2.4521-2.9507-1.4991-1.4678-3.7631-2.7251-3.5836-5.325zm-40.177 1.5768c-0.57776 2.436-2.0855 4.3797-3.4128 6.4565a22.642 22.642 0 0 0-2.3422 5.0749c-0.44504 1.3585 0.27337 2.6781 0.7106 3.5759a6.4569 6.4569 0 0 0 0.91343-1.8268c0.4372-1.0618 0.97597-2.1238 1.5615-3.2481 0.94473-1.8894 2.2258-3.4744 3.1627-5.0749h-0.0548c0.85885-1.46 0.41432-3.7942-0.41326-4.9575zm37.406 3.5866a3.9584 3.9584 0 0 0-2.6549 1.043 4.1458 4.1458 0 0 1 1.4914 0.21044c2.2798 0.78077 4.099 2.9672 5.3326 4.8645v0.0168a24.485 24.485 0 0 1 1.9519 3.7864c0.61678 1.1087 1.2026 2.2408 2.7875 2.3423a16.607 16.607 0 0 0-2.0769-5.598 20.253 20.253 0 0 0-3.8336-5.1222 6.574 6.574 0 0 0-1.8269-1.374 3.9584 3.9584 0 0 0-1.1711-0.16926zm-33.64 2.0434c-3.7674-0.13493-4.6672 3.442-6.1164 5.9014a0.87445 0.87445 0 0 0-0.28973 0.62521h0.0153a15.225 15.225 0 0 0-1.6622 4.5366c2.436-0.46845 3.2867-2.9827 4.2393-4.8721a17.466 17.466 0 0 1 4.6068-6.1134c-0.27765-0.0434-0.5418-0.0687-0.79295-0.0778zm-12.254 7.19v0.12504c0.92132 1.6084 0.53865 4.0756 0.32786 6.3711a38.749 38.749 0 0 0 0 6.5266c0.21867 2.2798 0.78206 3.9896 2.8745 4.622-0.78074-3.248-0.69616-8.0722-0.33701-12.07 0.2889-3.123-0.78068-4.9193-2.8653-5.5751zm58.502 0.49254c-1.608 0.11715-2.6808 1.8827-2.4978 3.6613 0.17174 1.6786 0.47597 3.693 0.66335 5.6605 0.23429 2.5374-0.18713 5.0436-0.21044 7.1595 3.6462-1.3351 2.3426-7.8076 1.8741-11.711v-0.0229c-0.21867-1.8738-0.35087-3.6228 0.50017-4.7471-0.11175-7e-3 -0.22218-8e-3 -0.32938 0zm-6.3238 2.4276c-0.047 0-0.0621 0.0465-0.0777 0.0853-0.0147 0.0389 0.047 7.1e-4 0 0.0397 1.0384 1.499 1.1475 3.903 1.374 6.4092 0.3045 3.3573-0.6168 7.3549 1.5615 8.9086a34.572 34.572 0 0 0 0.50016-9.7823c-0.1561-1.6708-0.11715-3.5757-0.78076-4.497h0.0473c-0.53088-0.78079-1.7031-0.90588-2.6244-1.1635zm-44.932 0.11744a4.0053 4.0053 0 0 0-3.4905 3.4112c-0.10918 0.78077-0.10208 2.0374-0.17232 2.7479a27.178 27.178 0 0 0 0.96071 9.1983c3.123-3.3026-0.17896-11.828 2.7021-15.357zm0.11589 12.32a4.1614 4.1614 0 0 0-1.8726 4.0761c0.38259 1.9988 1.8186 3.4043 2.9507 4.8721a63.046 63.046 0 0 0 5.7459 6.5739c0.86664-4.1458-2.7326-5.6532-3.9038-8.3703h0.032c-1.2492-2.0066-3.3503-3.7634-2.8272-7.1518zm44.753 0.53066-0.10064 0.032c0.58557 6.332-3.2632 9.2988-6.1988 12.492a3.8257 3.8257 0 0 0-0.25008 2.9583c3.3885-3.1699 7.0893-6.7917 8.5883-11.945 0.51528-1.7957-0.97697-2.7336-2.0388-3.5378zm6.5053 1.7079c-3.0007-0.12059-3.7251 3.2551-4.7791 5.4363-1.6162 3.3729-4.2546 6.0351-6.5266 8.6585 2.5999 0.34355 3.9032-0.99849 5.0352-2.2477 1.8036-2.1236 3.1234-4.8646 4.4116-7.527a16.739 16.739 0 0 1 2.4902-4.2469c-0.22106-0.0406-0.43127-0.0651-0.63131-0.0732zm-57.84 0.57793c-0.41069-3.7e-4 -0.85236 0.0555-1.3267 0.18147 2.6624 1.7957 3.7547 5.1457 5.8237 7.527 1.3273 1.6162 2.7807 4.2554 4.959 4.9971 0.58557 0.20301 1.8806 0.52984 2.4505-0.087a73.118 73.118 0 0 1-8.111-10.321c-0.81199-1.218-2.0158-2.2965-3.7955-2.298zm14.944 10.269c-1.1243 1.0228-0.65516 2.9512 0.29736 3.7086a22.189 22.189 0 0 0 4.1142 2.1242 34.798 34.798 0 0 0 6.7447 2.5375c0.20301-1.4991-1.4276-2.468-2.4582-2.9599-2.1705-1.0384-5.6688-2.342-7.527-3.7864a2.7873 2.7873 0 0 1-1.0461-1.624zm29.076 0.62521c-1.8504 2.0144-5.2077 3.4357-8.3931 4.2789-1.8113 0.48406-3.5602 0.95906-3.9038 2.786l0.0625-0.0153c3.2089 0.0547 5.6209-0.88905 8.0256-1.865 2.4047-0.97594 4.5446-1.7727 4.3338-5.1222h-0.0777zm-31.172 3.1856a2.717 2.717 0 0 0-2.5176 1.8116c1.2648-0.20303 2.4125 0.4751 3.4509 0.95917 1.8582 0.85883 3.4515 1.7111 5.2472 2.6168 1.9285 0.98374 4.5596 2.0529 6.246 0.0853a60.118 60.118 0 0 1-11.118-5.1603 2.717 2.717 0 0 0-1.3084-0.31259zm34.213 0.3065c-1.6287-0.11794-2.882 0.74449-4.0639 1.3252v-8e-3c-3.123 1.5224-6.5576 3.1853-10.571 3.3258 0.37476 1.1789 1.4517 1.7959 2.9507 1.7491 2.3969-0.0782 4.6849-1.2889 6.6212-2.2492 2.4516-1.218 4.465-2.6235 7.1976-3.2481a2.8576 2.8576 0 0 0-1.4121-0.78076c-0.24887-0.0605-0.49014-0.0975-0.72282-0.11437zm-17.96 2.3804c-0.15653-5e-3 -0.32304 6e-3 -0.50017 0.0381a2.0065 2.0065 0 0 0-1.7094 2.4978v-0.023a2.0222 2.0222 0 0 0 1.8726 1.5615c2.701 0.10984 2.685-3.9867 0.33701-4.0746z" fill="url(#linearGradient1580)" stroke-width=".78076"/>
 </g>
</svg>
