<?xml version="1.0" encoding="utf-8"?>
<!-- Generator: Adobe Illustrator 16.0.0, SVG Export Plug-In . SVG Version: 6.00 Build 0)  -->
<!DOCTYPE svg PUBLIC "-//W3C//DTD SVG 1.1//EN" "http://www.w3.org/Graphics/SVG/1.1/DTD/svg11.dtd">
<svg version="1.1" xmlns="http://www.w3.org/2000/svg" xmlns:xlink="http://www.w3.org/1999/xlink" x="0px" y="0px" width="1011px"
	 height="129px" viewBox="0 0 1011 129" enable-background="new 0 0 1011 129" xml:space="preserve">
<g id="Background_xA0_Bild_1_">
</g>
<g id="Vihreät_De_Gröna_1_" enable-background="new    ">
	<g id="Vihreät_De_Gröna">
		<g>
			<path fill-rule="evenodd" clip-rule="evenodd" fill="#53AF32" d="M57.185,72.015l-3.379,20.602h-0.322l-3.379-20.441l-14.805-61
				H6.172l31.541,111.392h30.736L99.99,11.175l-28.644-0.161L57.185,72.015z M106.777,32.642h28.561V7.956h-28.561V32.642z
				 M108.386,122.058h25.665V43.133h-25.665V122.058z M189.817,41.871c-5.483,0-12.265,1.937-15.172,3.55h-0.323V6.09h-25.826
				v115.968h25.826l-0.161-56.636c3.229-1.609,6.621-2.735,10.496-2.735c2.583,0,4.038,1.931,4.038,3.861v55.51h25.826V63.652
				C214.521,46.55,204.574,41.871,189.817,41.871z M247.273,50.185h-0.481l-0.802-6.895h-20.05v78.768h25.826V71.211
				c1.77-3.539,5.793-5.953,9.011-5.953c3.058,0,7.081,0.806,10.299,2.093l1.931-24.061c-3.219-0.802-6.759-1.443-11.104-1.443
				C256.272,41.847,251.283,43.771,247.273,50.185z M309.06,41.859c-24.208,0-34.287,14.989-34.287,40.99
				c0,26.7,10.239,40.738,36.379,40.738c8.529,0,14-0.968,26.392-3.389l-1.609-21.112c-6.598,1.763-15.127,3.686-24.138,3.686
				c-7.403,0-10.782-3.525-11.104-12.82h38.943V77.36C339.635,58.621,334.164,41.859,309.06,41.859z M300.691,72.193
				c0.322-7.186,1.126-13.413,8.368-13.413c7.081,0,7.563,6.068,8.207,13.413H300.691z M372.104,10.25h-20.059v20.099h20.059V10.25z
				 M402.919,10.25h-20.115v20.099h20.115V10.25z M375.671,41.847c-11.294,0-18.341,1.764-25.389,3.688l1.922,19.763
				c9.129-2.589,16.176-4.371,22.169-4.371c6.811,0,7.784,2.429,7.784,4.695l0.163,5.826c-19.545,0.971-37.643,3.723-37.643,26.704
				c0,6.956,2.082,14.492,6.246,18.5c4.805,4.811,9.77,7.215,17.137,7.215c6.476,0,13.773-2.565,17.479-4.81h0.322l1.126,3.207
				h19.955V62.06C406.942,44.733,390.528,41.847,375.671,41.847z M382.158,103.491c-1.784,0.485-3.081,1.134-7.297,1.134
				c-4.217,0-5.838-5.018-5.838-7.607c0-2.751,0.811-4.531,2.108-5.826c1.946-1.942,7.298-2.59,11.028-2.59V103.491z
				 M451.026,20.972h-25.748v23.206l-11.586,1.444v19.73h11.586v40.198c0,10.748,5.793,18.128,19.311,18.128
				c4.828,0,9.656-0.482,21.242-2.407l-1.771-22.323c-2.414,0.648-8.207,2.271-10.782,2.271c-1.609,0-2.092-0.649-2.092-3.732
				V65.352h19.149V43.375h-19.149L451.026,20.972z M534.538,11.293h-28.776v110.765h28.776c14.001,0,23.656-1.581,30.254-7.928
				c8.998-8.54,12.846-24.009,12.846-47.534s-4.008-38.833-12.846-47.372C558.033,13.032,548.539,11.293,534.538,11.293z
				 M559.643,108.329c-6.759,6.768-16.575,6.929-25.266,6.929h-20.599V18.093h20.599c8.69,0,18.507,0.164,25.266,6.931
				c7.402,7.573,9.979,21.592,9.979,41.572S567.206,100.917,559.643,108.329z M619.055,46.712c-8.699,0-15.144,2.045-20.138,6.454
				c-6.271,6.013-9.508,15.438-9.508,31.982c0,29.225,12.086,38.439,31.417,38.439c6.927,0,15.787-0.943,21.582-2.045l-0.482-6.683
				c-5.151,1.137-13.045,2.274-21.1,2.274c-13.693,0-24.325-5.686-24.325-31.514h48.321v-8.891c0-12.35-2.575-18.688-6.598-23.238
				C634.52,49.229,627.27,46.712,619.055,46.712z M637.259,79.329l-40.436-0.163c1.45-21.613,9.021-26.163,22.392-26.163
				c4.672,0,9.988,1.463,13.049,4.388C636.291,61.453,637.58,67.466,637.259,79.329z M746.031,113.073
				c-6.441,2.422-17.87,3.552-22.86,3.552c-30.746,0-35.897-24.381-35.897-49.893s5.151-49.895,35.736-49.895
				c7.888,0,17.063,0.81,24.795,2.263l0.483-7.42c-6.767-0.967-16.103-1.934-24.956-1.934c-35.897,0-44.12,26.147-44.12,56.987
				c0,30.679,8.223,56.854,43.959,56.854c9.015,0,22.86-2.214,30.761-5.377V75.613h-7.9V113.073z M776.401,56.11h-0.161
				l-2.092-7.559h-4.506v73.506h7.08V65.437c3.38-5.628,10.782-11.9,18.667-11.9c2.414,0,4.185,0.161,6.276,0.644l0.483-6.916
				c-1.449-0.161-3.059-0.322-4.667-0.322C789.758,46.943,784.125,47.265,776.401,56.11z M834.274,20.442h-8.873v8.887h8.873V20.442
				z M854.119,20.442h-8.873v8.887h8.873V20.442z M839.76,46.712c-20.192,0-31.659,9.366-31.659,38.646
				c0,29.119,11.467,38.483,31.493,38.483c20.145,0,31.571-9.364,31.571-38.483C871.165,56.078,859.898,46.712,839.76,46.712z
				 M839.76,117.551c-20.84,0-24.567-13.912-24.567-32.192s3.728-32.355,24.401-32.355c20.787,0,24.479,14.075,24.479,32.355
				S860.541,117.551,839.76,117.551z M920.489,46.688c-8.02,0-15.878,0-29.191,6.594h-0.161l-0.965-4.985h-5.633v73.761h7.081
				V60.386c9.302-6.458,18.444-7.104,27.426-7.104c5.613,0,14.757,1.131,14.757,12.27v56.506h7.081V64.745
				C940.884,51.834,930.113,46.688,920.489,46.688z M981.987,46.688c-8.069,0-15.816,0.483-23.551,2.091l0.477,7.09
				c6.29-1.455,17.103-2.587,22.751-2.587c10.975,0,16.785,3.072,16.785,12.609v14.387c-6.133-0.162-12.589-0.324-19.851,0.484
				c-5.972,0.647-12.75,1.94-16.785,4.203c-7.193,4.041-9.42,10.022-9.42,18.752c0,11.477,10.227,19.869,19.91,19.869
				c11.297,0,17.431-0.472,26.79-5.819h0.16l0.483,4.403h5.793V64.436C1005.53,51.834,995.705,46.688,981.987,46.688z
				 M998.449,110.184c-7.747,5.496-15.816,7.112-25.661,7.112c-5.81,0-13.396-5.98-13.396-13.578c0-4.526,0.323-9.861,5.972-13.094
				c3.228-1.939,8.554-2.91,14.524-3.395c7.263-0.809,12.912-0.646,18.722-0.485L998.449,110.184z"/>
		</g>
	</g>
</g>
<g id="BARA_FÖR_ATT_SANNINGEN_INTE_SK_1_" enable-background="new    ">
</g>
</svg>
